<?xml version="1.0" encoding="UTF-8" standalone="no"?>
<!-- Created with Inkscape (http://www.inkscape.org/) -->

<svg
   width="198.34059mm"
   height="44.615803mm"
   viewBox="0 0 198.34059 44.615803"
   version="1.1"
   id="svg1"
   xml:space="preserve"
   xmlns:inkscape="http://www.inkscape.org/namespaces/inkscape"
   xmlns:sodipodi="http://sodipodi.sourceforge.net/DTD/sodipodi-0.dtd"
   xmlns="http://www.w3.org/2000/svg"
   xmlns:svg="http://www.w3.org/2000/svg"><sodipodi:namedview
     id="namedview1"
     pagecolor="#ffffff"
     bordercolor="#000000"
     borderopacity="0.25"
     inkscape:showpageshadow="2"
     inkscape:pageopacity="0.0"
     inkscape:pagecheckerboard="0"
     inkscape:deskcolor="#d1d1d1"
     inkscape:document-units="mm" /><defs
     id="defs1" /><g
     inkscape:label="Layer 1"
     inkscape:groupmode="layer"
     id="layer1"
     transform="translate(0,-95.213712)"><path
       style="fill:#000000"
       d="m 97.181401,139.64925 c -0.50932,-0.1503 -1.03046,-0.37434 -1.15809,-0.49785 -0.12762,-0.12351 -3.044655,-0.16679 -6.48229,-0.0962 -3.437635,0.0706 -9.725305,0.0322 -13.972601,-0.0855 -6.447543,-0.17854 -7.814517,-0.15255 -8.280636,0.1574 -0.421605,0.28036 -0.632971,0.29655 -0.863373,0.0661 -0.230401,-0.2304 -0.178784,-0.31155 0.210845,-0.33147 0.412377,-0.0211 0.383168,-0.0689 -0.145521,-0.23821 -0.363802,-0.11651 -2.804583,-0.23033 -5.423958,-0.25294 -2.619375,-0.0226 -6.786563,-0.15224 -9.260417,-0.28807 -6.564483,-0.36045 -15.931739,-0.79161 -19.579166,-0.9012 -1.74625,-0.0525 -4.246562,-0.24258 -5.55625,-0.42246 -3.236981,-0.44461 -6.958509,-0.52167 -8.015375,-0.16597 -0.656735,0.22102 -0.982888,0.21479 -1.322917,-0.0253 -1.191346,-0.84109 -1.94524,-1.08398 -3.89634,-1.25535 -1.161161,-0.10199 -2.289794,-0.3411 -2.508076,-0.53136 -0.218281,-0.19027 -0.873125,-0.43121 -1.4552082,-0.53544 -1.45598,-0.26071 -1.984375,-0.57691 -1.984375,-1.1875 0,-0.28592 -0.238125,-0.75798 -0.529167,-1.04902 -0.291041,-0.29089 -0.529166,-0.7526 -0.529166,-1.02587 0,-0.79369 -0.771813,-2.42176 -1.231739,-2.59825 -0.243977,-0.0936 -0.51857,0.0122 -0.652474,0.25149 -0.130709,0.23357 -0.4428114,0.35781 -0.7180294,0.28584 -0.4146174,-0.10842 -0.4886536,-0.41138 -0.4991651,-2.04257 -0.015184,-2.35634 -0.6169895,-3.67353 -2.3135526,-5.06374 -1.17891134,-0.96602 -1.32907254,-1.44407 -0.45640474,-1.45299 0.2460732,-0.003 0.71751444,-0.38947 1.04764704,-0.8599 0.4949571,-0.70529 0.5297636,-0.87033 0.1984375,-0.94087 -0.220992,-0.047 -0.4018036,-0.20976 -0.4018036,-0.36158 0,-0.15407 0.2569675,-0.20885 0.5815446,-0.12397 0.5765616,0.15078 1.2705387,-0.20531 1.2705387,-0.65192 0,-0.1277 -0.1856205,-0.23219 -0.4124899,-0.23219 -0.2268695,0 -0.3389053,-0.11906 -0.2489684,-0.26458 0.089937,-0.14552 0.5222537,-0.26459 0.9607041,-0.26459 h 0.7971828 l -0.145531,-2.3151 c -0.2919224,-4.64387 -0.2182804,-5.61769 0.483457,-6.3931 0.229751,-0.25387 0.417729,-0.61378 0.417729,-0.79979 0,-0.22115 0.16026,-0.26967 0.463021,-0.14018 1.632257,0.69806 2.90932,0.3324 3.736709,-1.06992 0.465894,-0.78963 0.468173,-0.85536 0.03896,-1.12341 -0.302077,-0.18865 -0.519343,-0.80551 -0.64397,-1.82837 -0.103445,-0.84902 -0.25261,-2.0807 -0.331476,-2.73707 -0.200584,-1.669387 0.35943,-2.280197 2.6806982,-2.923867 3.620901,-1.00404 6.75787,-1.11926 25.625019,-0.94113 12.066298,0.11391 17.88878,0.0818 17.777614,-0.0981 -0.09095,-0.14717 0.07974,-0.26748 0.379475,-0.26748 0.29963,0 0.544781,0.11907 0.544781,0.26459 0,0.14552 0.483277,0.26458 1.073948,0.26458 0.648591,0 1.009183,-0.10479 0.910427,-0.26458 -0.08994,-0.14552 0.02913,-0.26459 0.264584,-0.26459 0.235457,0 0.35452,0.11907 0.264583,0.26459 -0.104911,0.16975 0.766712,0.26122 2.431781,0.2552 2.384332,-0.009 2.541533,-0.0401 1.933844,-0.3875 l -0.661459,-0.37812 0.905209,-0.009 c 0.497864,-0.005 1.109394,0.17541 1.358954,0.40126 0.407801,0.36906 2.271903,0.37938 18.409375,0.10199 9.875595,-0.16976 22.90341,-0.29501 28.9507,-0.27834 6.85027,0.0189 11.78738,-0.0813 13.09687,-0.26569 1.34563,-0.18951 8.66998,-0.31856 20.35806,-0.3587 10.04094,-0.0345 18.37531,-0.10091 18.52083,-0.14762 0.14552,-0.0467 0.80037,0.0737 1.45521,0.26758 1.17242,0.34711 2.97652,0.50243 7.40833,0.6378 1.28161,0.0391 2.53347,0.2251 2.91042,0.4323 0.48033,0.26405 2.43647,0.41423 7.14375,0.54848 8.51326,0.24278 11.15161,0.69284 13.57791,2.31615 0.5763,0.38557 1.26937,0.818567 1.54016,0.962217 0.35766,0.18973 0.49235,0.55821 0.49235,1.34701 0,0.59721 0.17264,1.65948 0.38365,2.36061 0.26312,0.8743 0.30278,1.42589 0.12622,1.75578 -0.30984,0.57894 -1.08167,1.02229 -1.77972,1.02229 -0.28098,0 -0.79534,0.22376 -1.14303,0.49725 -0.34768,0.27349 -0.85989,0.54138 -1.13823,0.59531 -0.79512,0.15407 -0.74962,0.58681 0.11334,1.07795 0.46024,0.26193 0.79193,0.66967 0.79193,0.97348 0,0.3253 0.56849,0.95486 1.50496,1.66665 0.82772,0.62913 1.4991,1.26263 1.49195,1.40777 -0.0207,0.42024 -1.24528,0.916 -2.63878,1.0683 -0.70629,0.0772 -2.11761,0.30942 -3.13625,0.51607 -1.01865,0.20664 -3.18003,0.61646 -4.80308,0.9107 -4.27891,0.77572 -4.99116,1.22828 -4.3046,2.7351 0.25447,0.55852 0.52129,0.67971 1.71421,0.77864 0.96066,0.0797 1.73932,0.34342 2.43299,0.82414 0.56109,0.38883 1.32758,0.70697 1.70331,0.70697 0.37573,0 1.02417,0.17786 1.44099,0.39525 0.41681,0.21738 0.9662,0.39598 1.22086,0.39687 0.25467,9e-4 0.46303,0.18023 0.46303,0.39851 0,0.21828 0.17511,0.39687 0.38913,0.39687 0.59303,0 2.78193,1.63397 2.81515,2.10146 0.16523,2.32489 -0.27313,2.9524 -2.6212,3.75223 -3.38342,1.15252 -6.4102,2.52006 -7.15532,3.23287 -0.71694,0.68586 -4.98065,2.44793 -9.03818,3.73522 -2.12436,0.67397 -3.27355,0.863 -8.7718,1.44284 -1.25923,0.1328 -2.50939,0.35453 -2.77813,0.49273 -0.26874,0.13819 -1.44111,0.32553 -2.60528,0.4163 -1.16417,0.0908 -3.9026,0.33461 -6.08542,0.54187 -2.18281,0.20725 -5.02772,0.45911 -6.32203,0.55967 -1.52301,0.11834 -2.22313,0.26526 -1.98438,0.41644 0.26448,0.16747 0.15852,0.23475 -0.3743,0.23766 -0.40877,0.002 -0.6753,-0.10586 -0.59228,-0.24018 0.0912,-0.14761 -1.60365,-0.18975 -4.28386,-0.10652 -2.43915,0.0757 -8.602,0.22616 -13.69523,0.33426 l -9.26041,0.19653 6.72482,0.0423 c 3.69866,0.0232 6.64302,0.12408 6.54304,0.22406 -0.1,0.1 -5.88887,0.19372 -12.86419,0.20828 -6.97531,0.0146 -12.64482,-0.0111 -12.59891,-0.057 0.0459,-0.0459 1.20129,-0.1828 2.56749,-0.30419 1.87531,-0.16662 0.6038,-0.21579 -5.18892,-0.20067 -6.619749,0.0173 -7.055539,0.0409 -3.175,0.17178 4.37159,0.14749 4.40874,0.15342 1.32292,0.21108 -1.74625,0.0326 -3.591719,0.11215 -4.101049,0.1767 -0.50932,0.0646 -1.34276,-0.006 -1.85208,-0.15592 z m -21.497395,-0.40709 c 0.181901,-0.0734 0.479557,-0.0734 0.661458,0 0.181901,0.0734 0.03307,0.13345 -0.330729,0.13345 -0.363802,0 -0.51263,-0.0601 -0.330729,-0.13345 z m 17.335243,-0.008 c 0.257431,-0.0671 0.614619,-0.0627 0.793751,0.01 0.17913,0.0725 -0.0315,0.12736 -0.468057,0.12197 -0.436563,-0.005 -0.583125,-0.0647 -0.325694,-0.13177 z m 46.429341,-0.0138 c 1.34607,-0.048 3.54872,-0.048 4.89479,0 1.34607,0.048 0.24474,0.0873 -2.4474,0.0873 -2.69213,0 -3.79346,-0.0393 -2.44739,-0.0873 z M 23.230361,137.03614 c -0.08994,-0.14552 0.0221,-0.26458 0.248968,-0.26458 0.22687,0 0.41249,0.11906 0.41249,0.26458 0,0.14552 -0.112035,0.26458 -0.248968,0.26458 -0.136933,0 -0.322553,-0.11906 -0.41249,-0.26458 z M 175.56925,96.371543 c 0.25743,-0.0671 0.61462,-0.0627 0.79375,0.01 0.17913,0.0725 -0.0315,0.12736 -0.46806,0.12197 -0.43656,-0.005 -0.58312,-0.0647 -0.32569,-0.13178 z"
       id="path1"
       sodipodi:nodetypes="csscscsssscsscsssscsssssscscsssssscssscssssssssssssscsccssssssscssssssssssssssssssssssssssssssssssscscsccscssscsccccssccccccsssssssssccccc" /></g></svg>
