<?xml version="1.0" encoding="UTF-8" standalone="no"?>
<!-- Created with Inkscape (http://www.inkscape.org/) -->

<svg
   width="226.66026"
   height="111.34151"
   viewBox="0 0 59.970525 29.45911"
   version="1.1"
   id="svg234"
   inkscape:version="1.2.1 (9c6d41e410, 2022-07-14)"
   sodipodi:docname="logo.svg"
   inkscape:export-filename="logo.png"
   inkscape:export-xdpi="100"
   inkscape:export-ydpi="100"
   xmlns:inkscape="http://www.inkscape.org/namespaces/inkscape"
   xmlns:sodipodi="http://sodipodi.sourceforge.net/DTD/sodipodi-0.dtd"
   xmlns="http://www.w3.org/2000/svg"
   xmlns:svg="http://www.w3.org/2000/svg">
  <sodipodi:namedview
     id="namedview236"
     pagecolor="#505050"
     bordercolor="#ffffff"
     borderopacity="1"
     inkscape:showpageshadow="0"
     inkscape:pageopacity="0"
     inkscape:pagecheckerboard="1"
     inkscape:deskcolor="#505050"
     inkscape:document-units="mm"
     showgrid="false"
     inkscape:zoom="0.5946522"
     inkscape:cx="21.020691"
     inkscape:cy="729.83839"
     inkscape:window-width="1920"
     inkscape:window-height="1027"
     inkscape:window-x="-8"
     inkscape:window-y="-8"
     inkscape:window-maximized="1"
     inkscape:current-layer="layer1" />
  <defs
     id="defs231" />
  <g
     inkscape:label="Layer 1"
     inkscape:groupmode="layer"
     id="layer1"
     transform="translate(-12.348065,-27.60377)">
    <rect
       style="display:none;fill:#ffffff;fill-opacity:1;stroke:none;stroke-width:0.799999;stroke-linejoin:round;paint-order:markers fill stroke;stop-color:#000000"
       id="rect456"
       width="84.666664"
       height="84.666664"
       x="0"
       y="0"
       inkscape:export-filename=".\rect456.png"
       inkscape:export-xdpi="100"
       inkscape:export-ydpi="100" />
    <g
       aria-label="KUARA"
       id="text264"
       style="font-size:18.9667px;text-align:end;letter-spacing:0px;word-spacing:0px;text-anchor:end;fill:#222222;stroke-width:0.474165">
      <path
         d="m 26.589849,45.903249 q 0,-1.460436 -0.189667,-4.931342 -0.1707,-3.489873 -0.303467,-4.419241 0,-0.417267 0.284501,-0.720735 0.2845,-0.322434 0.644867,-0.322434 0.455201,0 0.606935,0.569001 0.303467,1.89667 0.379334,5.46241 1.707003,-1.574236 2.636371,-2.693271 0.948335,-1.119036 1.991503,-2.863972 0.303468,-0.512101 0.891435,-0.512101 0.303467,0 0.493134,0.1707 0.208634,0.151734 0.208634,0.379334 0,0.606935 -1.081102,2.105304 -1.062135,1.479403 -2.257037,2.882938 1.593203,1.593203 2.731205,3.67954 0.151733,0.265534 0.3983,0.663835 0.246568,0.3983 0.379334,0.625901 0.360368,0.625901 0.360368,1.062135 0,0.436234 -0.227601,0.720734 -0.208633,0.265534 -0.531067,0.265534 -0.322434,0 -0.834535,-0.834535 -0.512101,-0.853501 -1.479403,-2.389804 -0.948335,-1.555269 -2.01047,-2.731204 -1.062135,1.024201 -1.593203,1.422502 0.0569,1.213869 0.0569,2.029437 0,0.796601 -0.03793,1.289735 -0.1138,1.232836 -1.005235,1.232836 -0.550034,0 -0.512101,-0.663835 z"
         style="-inkscape-font-specification:'Patrick Hand SC'"
         id="path273"
         inkscape:export-filename=".\path273.png"
         inkscape:export-xdpi="100"
         inkscape:export-ydpi="100" />
      <path
         d="m 43.337459,35.737098 q 0.265533,-0.303467 0.587967,-0.303467 0.322434,0 0.550035,0.322434 0.322434,1.650102 0.322434,3.698506 v 1.441469 q 0,1.631136 -0.0569,1.934603 -0.0569,0.284501 -0.1138,0.644868 -0.0569,0.360368 -0.1138,0.550035 -0.03793,0.189667 -0.132767,0.5121 -0.208634,0.701768 -0.587968,1.251803 -0.569001,1.062135 -1.498369,1.669069 -0.929368,0.606935 -1.89667,0.606935 -0.948335,0 -1.972537,-0.834535 -1.005235,-0.834535 -1.650102,-2.086337 -0.986269,-1.934604 -0.986269,-4.457175 0,-0.891434 0.265534,-4.229574 0.132767,-0.303467 0.398301,-0.531067 0.2845,-0.246567 0.569001,-0.246567 0.417267,0 0.512101,0.569001 -0.265534,3.281239 -0.265534,4.153707 0,2.086337 0.815568,3.698506 0.512101,1.062136 1.251802,1.78287 0.758668,0.701768 1.479403,0.701768 1.194902,0 2.048403,-1.858737 0.360367,-0.644867 0.398301,-2.06737 0,-0.379334 0.03793,-0.531067 l 0.03793,-2.503605 q 0,-1.744936 -0.265534,-3.186405 0,-0.398301 0.265534,-0.701768 z"
         style="-inkscape-font-specification:'Patrick Hand SC'"
         id="path275" />
      <path
         d="m 50.468924,35.566398 q 0.474168,0 0.796601,0.417267 0.322434,0.417267 0.834535,1.72597 1.194902,3.091572 2.332904,9.691983 0.01897,0.07587 0.01897,0.2276 0,0.132767 -0.189667,0.303468 -0.1707,0.151733 -0.512101,0.151733 -0.322434,0 -0.550034,-0.151733 -0.227601,-0.170701 -0.303467,-0.531068 -0.07587,-0.379334 -0.284501,-1.460436 -0.455201,-2.408771 -0.606934,-2.503604 -0.227601,-0.132767 -1.517336,-0.284501 -1.270769,-0.151733 -1.688036,-0.151733 -0.417268,0 -0.493135,0.07587 -0.3414,0.303467 -0.929368,4.608908 -0.07587,0.360367 -0.720735,0.360367 -0.644867,0 -0.644867,-0.550034 0,-1.365603 1.005235,-5.215843 1.005235,-3.85024 1.669069,-5.102042 0.834535,-1.612169 1.78287,-1.612169 z m -0.07587,2.105303 q -0.2845,0 -0.986268,1.688036 -0.701768,1.66907 -0.701768,2.067371 0,0.09483 0.03793,0.132767 0.151734,0.151733 1.194903,0.265533 1.043168,0.113801 1.384569,0.113801 0.3414,0 0.379334,-0.03793 0.03793,-0.0569 0.03793,-0.303467 0,-0.265534 -0.512101,-2.086337 -0.512101,-1.83977 -0.834535,-1.83977 z"
         style="-inkscape-font-specification:'Patrick Hand SC'"
         id="path277" />
      <path
         d="m 57.06935,47.249884 q 0,0.341401 -0.303467,0.625902 -0.303467,0.265533 -0.663835,0.265533 -0.3414,0 -0.474167,-0.4552 -0.0569,-2.503605 -0.0569,-4.988242 l -0.0569,-4.779609 q 0,-1.441469 1.270769,-1.972536 1.024201,-0.474168 2.427737,-0.474168 0.720735,0 1.536303,0.360367 0.834535,0.341401 1.479402,1.024202 0.663835,0.663835 0.663835,1.460436 0,0.777635 -0.720735,1.688036 -0.720734,0.891435 -1.782869,1.593203 -1.062136,0.682801 -2.067371,1.024202 1.763903,1.232835 3.072606,2.655338 1.308702,1.403536 1.308702,2.18117 0,0.246567 -0.246567,0.474168 -0.246567,0.208633 -0.606935,0.208633 -0.3414,0 -0.587967,-0.303467 -0.417268,-1.005235 -1.593203,-2.105303 -1.156969,-1.119036 -2.712238,-2.124271 z m -0.07587,-5.690009 q 1.270769,-0.0569 2.845005,-1.062136 1.593203,-1.005235 1.593203,-1.801836 0,-0.815568 -0.796601,-1.251802 -0.796602,-0.436234 -1.89667,-0.436234 -1.081102,0 -1.72597,0.265534 -0.01897,0.967301 -0.01897,4.286474 z"
         style="-inkscape-font-specification:'Patrick Hand SC'"
         id="path279" />
      <path
         d="m 68.335581,35.566398 q 0.474168,0 0.796602,0.417267 0.322434,0.417267 0.834535,1.72597 1.194902,3.091572 2.332904,9.691983 0.01897,0.07587 0.01897,0.2276 0,0.132767 -0.189667,0.303468 -0.1707,0.151733 -0.512101,0.151733 -0.322433,0 -0.550034,-0.151733 -0.2276,-0.170701 -0.303467,-0.531068 -0.07587,-0.379334 -0.284501,-1.460436 -0.4552,-2.408771 -0.606934,-2.503604 -0.2276,-0.132767 -1.517336,-0.284501 -1.270769,-0.151733 -1.688036,-0.151733 -0.417268,0 -0.493134,0.07587 -0.341401,0.303467 -0.929369,4.608908 -0.07587,0.360367 -0.720734,0.360367 -0.644868,0 -0.644868,-0.550034 0,-1.365603 1.005235,-5.215843 1.005235,-3.85024 1.66907,-5.102042 0.834534,-1.612169 1.782869,-1.612169 z m -0.07587,2.105303 q -0.284501,0 -0.986269,1.688036 -0.701768,1.66907 -0.701768,2.067371 0,0.09483 0.03793,0.132767 0.151733,0.151733 1.194902,0.265533 1.043168,0.113801 1.384569,0.113801 0.3414,0 0.379334,-0.03793 0.03793,-0.0569 0.03793,-0.303467 0,-0.265534 -0.512101,-2.086337 -0.512101,-1.83977 -0.834534,-1.83977 z"
         style="-inkscape-font-specification:'Patrick Hand SC'"
         id="path281" />
    </g>
    <g
       aria-label="cerámica"
       id="text268"
       style="font-size:7.24686px;text-align:end;letter-spacing:0.711548px;word-spacing:0px;text-anchor:end;fill:#414141;stroke-width:0.283403">
      <path
         d="m 36.524566,55.377007 q -0.62323,0 -1.01456,-0.39133 -0.391331,-0.391331 -0.391331,-1.079782 0.0072,-0.456552 0.188419,-0.804402 0.181171,-0.347849 0.500033,-0.543514 0.318862,-0.195665 0.73918,-0.195665 0.536267,0 0.884117,0.297121 0.355096,0.289874 0.434811,0.731933 H 37.55362 q -0.07247,-0.340603 -0.347849,-0.529021 -0.268134,-0.195665 -0.652217,-0.195665 -0.500034,0 -0.804402,0.340602 -0.304368,0.340603 -0.304368,0.884117 0,0.543515 0.289874,0.862376 0.297122,0.318862 0.797155,0.318862 0.39133,0 0.666711,-0.195665 0.282628,-0.195665 0.355096,-0.536268 h 0.311615 q -0.07972,0.449306 -0.442058,0.746427 -0.362343,0.289874 -0.898611,0.289874 z"
         style="-inkscape-font-specification:'Darker Grotesque'"
         id="path464" />
      <path
         d="m 40.453722,55.377007 q -0.471046,0 -0.782661,-0.224652 -0.304368,-0.224653 -0.456552,-0.572502 -0.152184,-0.355096 -0.144937,-0.731933 0,-0.391331 0.159431,-0.731933 0.159431,-0.340602 0.463799,-0.543515 0.311615,-0.210158 0.753673,-0.210158 0.550762,0 0.905858,0.362343 0.362343,0.355096 0.405824,0.956585 0.0072,0.03623 0.0072,0.08696 0,0.05073 0,0.09421 h -2.37697 q 0,0.558008 0.27538,0.891363 0.275381,0.333356 0.789908,0.333356 0.36959,0 0.637724,-0.195665 0.27538,-0.195666 0.340602,-0.529021 h 0.326109 q -0.08696,0.449305 -0.442059,0.731933 -0.347849,0.282627 -0.862376,0.282627 z m -1.043548,-1.731999 h 2.014627 q -0.0072,-0.188419 -0.108703,-0.420318 -0.09421,-0.2319 -0.311615,-0.405824 -0.210159,-0.173925 -0.558008,-0.173925 -0.478293,0 -0.731933,0.297121 -0.25364,0.297122 -0.304368,0.702946 z"
         style="-inkscape-font-specification:'Darker Grotesque'"
         id="path461" />
      <path
         d="m 43.172648,55.304539 v -2.942225 h 0.282627 l 0.04348,0.753673 q 0.07247,-0.311615 0.340603,-0.536268 0.268133,-0.224652 0.753673,-0.217405 h 0.159431 v 0.369589 h -0.159431 q -0.492786,0 -0.724686,0.159431 -0.231899,0.152184 -0.304368,0.413071 -0.06522,0.260887 -0.06522,0.579749 v 1.420385 z"
         style="-inkscape-font-specification:'Darker Grotesque'"
         id="path458" />
      <path
         d="m 46.891645,55.36976 q -0.405824,0 -0.673958,-0.202912 -0.268134,-0.202912 -0.398577,-0.543514 -0.130444,-0.347849 -0.130444,-0.768167 0,-0.434812 0.130444,-0.775414 0.13769,-0.34785 0.405824,-0.543515 0.268134,-0.202912 0.666711,-0.202912 0.427565,0 0.681205,0.210159 0.25364,0.202912 0.362343,0.471046 h 0.01449 v -0.652217 h 0.333355 v 2.942225 h -0.27538 l -0.05798,-0.608737 h -0.01449 q -0.11595,0.268134 -0.36959,0.471046 -0.25364,0.202912 -0.673958,0.202912 z m 0.123197,-0.304368 q 0.463799,0 0.695698,-0.318861 0.2319,-0.318862 0.2319,-0.884117 0,-0.60149 -0.246393,-0.905858 -0.239147,-0.304368 -0.681205,-0.304368 -0.514527,0 -0.753674,0.347849 -0.239146,0.340603 -0.239146,0.85513 0,0.536267 0.246393,0.87687 0.246394,0.333355 0.746427,0.333355 z m 0.130443,-3.0002 h -0.173924 v -0.05798 l 0.39133,-0.753673 h 0.318862 v 0.08696 z"
         style="-inkscape-font-specification:'Darker Grotesque'"
         id="path455" />
      <path
         d="m 49.5526,55.304539 v -2.942225 h 0.27538 l 0.02899,0.78266 h 0.01449 q 0.02174,-0.06522 0.07247,-0.188418 0.05797,-0.130443 0.166678,-0.260887 0.108703,-0.13769 0.289874,-0.231899 0.181172,-0.101456 0.449305,-0.101456 0.289875,0 0.4638,0.115949 0.181171,0.108703 0.282627,0.289875 0.101456,0.181171 0.144937,0.376836 h 0.01449 q 0.02174,-0.06522 0.07972,-0.188418 0.06522,-0.130443 0.181172,-0.260887 0.123197,-0.13769 0.311615,-0.231899 0.188418,-0.101456 0.456552,-0.101456 0.289874,0 0.471046,0.115949 0.181171,0.11595 0.282628,0.297122 0.101456,0.173924 0.144937,0.376836 0.04348,0.202912 0.05073,0.391331 0.0072,0.181171 0.0072,0.304368 v 1.456619 h -0.297122 v -1.463866 q 0,-0.123197 -0.01449,-0.311615 -0.0072,-0.195665 -0.07972,-0.39133 -0.06522,-0.202913 -0.217406,-0.333356 -0.152184,-0.13769 -0.434811,-0.13769 -0.311615,0 -0.50728,0.173924 -0.195666,0.173925 -0.297122,0.456552 -0.09421,0.282628 -0.09421,0.615984 v 1.391397 h -0.297121 v -1.463866 q 0,-0.123197 -0.01449,-0.311615 -0.0072,-0.195665 -0.07972,-0.39133 -0.06522,-0.202913 -0.217406,-0.333356 -0.152184,-0.13769 -0.434812,-0.13769 -0.311615,0 -0.50728,0.173924 -0.195665,0.173925 -0.297121,0.456552 -0.09421,0.282628 -0.09421,0.615984 v 1.391397 z"
         style="-inkscape-font-specification:'Darker Grotesque'"
         id="path452" />
      <path
         d="m 55.365932,52.050699 q -0.123197,0.0072 -0.166678,-0.06522 -0.04348,-0.07247 -0.04348,-0.173925 0,-0.09421 0.04348,-0.159431 0.04348,-0.06522 0.166678,-0.06522 0.11595,0 0.159431,0.06522 0.04348,0.06522 0.04348,0.159431 0,0.108703 -0.04348,0.173925 -0.04348,0.06522 -0.159431,0.06522 z m -0.173925,3.25384 v -2.942225 h 0.326109 v 2.942225 z"
         style="-inkscape-font-specification:'Darker Grotesque'"
         id="path449" />
      <path
         d="m 58.244285,55.377007 q -0.62323,0 -1.01456,-0.39133 -0.391331,-0.391331 -0.391331,-1.079782 0.0072,-0.456552 0.188419,-0.804402 0.181171,-0.347849 0.500033,-0.543514 0.318862,-0.195665 0.73918,-0.195665 0.536267,0 0.884117,0.297121 0.355096,0.289874 0.434811,0.731933 h -0.311615 q -0.07247,-0.340603 -0.347849,-0.529021 -0.268134,-0.195665 -0.652217,-0.195665 -0.500034,0 -0.804402,0.340602 -0.304368,0.340603 -0.304368,0.884117 0,0.543515 0.289874,0.862376 0.297122,0.318862 0.797155,0.318862 0.39133,0 0.666711,-0.195665 0.282628,-0.195665 0.355096,-0.536268 h 0.311615 q -0.07972,0.449306 -0.442058,0.746427 -0.362343,0.289874 -0.898611,0.289874 z"
         style="-inkscape-font-specification:'Darker Grotesque'"
         id="path446" />
      <path
         d="m 61.905309,55.36976 q -0.405825,0 -0.673958,-0.202912 -0.268134,-0.202912 -0.398578,-0.543514 -0.130443,-0.347849 -0.130443,-0.768167 0,-0.434812 0.130443,-0.775414 0.137691,-0.34785 0.405824,-0.543515 0.268134,-0.202912 0.666712,-0.202912 0.427564,0 0.681204,0.210159 0.25364,0.202912 0.362343,0.471046 h 0.01449 v -0.652217 h 0.333356 v 2.942225 h -0.275381 l -0.05797,-0.608737 h -0.01449 q -0.115949,0.268134 -0.369589,0.471046 -0.253641,0.202912 -0.673958,0.202912 z m 0.123196,-0.304368 q 0.463799,0 0.695699,-0.318861 0.231899,-0.318862 0.231899,-0.884117 0,-0.60149 -0.246393,-0.905858 -0.239146,-0.304368 -0.681205,-0.304368 -0.514527,0 -0.753673,0.347849 -0.239147,0.340603 -0.239147,0.85513 0,0.536267 0.246394,0.87687 0.246393,0.333355 0.746426,0.333355 z"
         style="-inkscape-font-specification:'Darker Grotesque'"
         id="path443" />
    </g>
    <path
       style="color:#000000;fill:#414141;fill-opacity:1;stroke-width:1.59869;stroke-linejoin:round;paint-order:markers fill stroke"
       d="m 15.861456,27.603772 c 0,0 11.473154,0.174765 16.466244,0.0593 0,0 1.145675,-0.0054 3.131559,0.0054 -4.484459,2.092152 -10.084393,1.395257 -14.300418,1.455847 -1.885976,0.02622 -3.336714,0.04074 -3.836913,0.03415 2.144245,2.485344 3.312698,4.635585 3.331376,6.600856 0.02138,2.237739 -0.872065,4.180163 -2.248214,6.288627 -0.001,0.0027 -0.0027,0.004 -0.0027,0.0067 -1.440666,2.143464 -2.130811,4.081291 -2.220056,5.75157 -0.08929,1.670266 0.400022,3.084187 1.398847,4.280878 1.333806,1.598018 4.061309,3.208124 6.968216,3.612288 2.964902,0.376262 5.403802,0.07759 8.026179,1.262929 -1.023445,0.116044 -6.492288,0.154515 -8.362115,-0.0094 -3.47165,-0.304216 -7.676366,-1.306187 -9.91908,-3.805865 -1.383763,-1.542309 -2.111436,-3.011616 -1.914535,-5.542785 0.196903,-2.531157 1.525579,-4.251 3.084091,-6.402062 1.558512,-2.151049 2.814422,-3.667284 2.824735,-5.429982 -0.01748,-1.842127 -0.11833,-3.941662 -2.854452,-6.79446 -0.585665,-0.663481 -0.03563,-1.358279 0.427709,-1.373285 z"
       id="path270"
       sodipodi:nodetypes="cccccsccssccsszzcccc"
       inkscape:export-filename="favicon.png"
       inkscape:export-xdpi="100"
       inkscape:export-ydpi="100" />
  </g>
</svg>
