<?xml version="1.0" encoding="UTF-8" standalone="no"?>
<!DOCTYPE svg PUBLIC "-//W3C//DTD SVG 1.1//EN" "http://www.w3.org/Graphics/SVG/1.1/DTD/svg11.dtd">
<svg width="100%" height="100%" viewBox="0 0 345 172" version="1.1" xmlns="http://www.w3.org/2000/svg" xmlns:xlink="http://www.w3.org/1999/xlink" xml:space="preserve" xmlns:serif="http://www.serif.com/" style="fill-rule:evenodd;clip-rule:evenodd;stroke-linejoin:round;stroke-miterlimit:2;">
    <g transform="matrix(1,0,0,1,-152.555,-90.3733)">
        <g transform="matrix(1.12666,0,0,1.12666,150.301,7.21647)">
            <g id="Logo">
                <g id="text264" transform="matrix(1.36507,0,0,1.36507,-65.4181,-66.9481)">
                    <path id="path273" d="M100.497,173.493C100.497,169.813 100.258,163.6 99.78,154.854C99.35,146.061 98.968,140.494 98.633,138.152C98.633,137.1 98.992,136.192 99.709,135.428C100.425,134.615 101.238,134.209 102.146,134.209C103.293,134.209 104.057,134.926 104.44,136.36C105.204,141.139 105.682,148.02 105.873,157.005C110.175,153.038 113.496,149.645 115.838,146.826C118.227,144.006 120.736,140.398 123.365,136.001C124.129,134.711 125.252,134.066 126.734,134.066C127.498,134.066 128.12,134.281 128.598,134.711C129.123,135.093 129.386,135.571 129.386,136.145C129.386,137.674 128.024,140.326 125.3,144.102C122.624,147.829 119.78,151.461 116.77,154.998C120.784,159.012 124.225,163.648 127.092,168.905C127.475,169.574 127.976,170.41 128.598,171.414C129.219,172.417 129.697,173.206 130.031,173.779C130.939,175.356 131.393,176.695 131.393,177.794C131.393,178.893 131.107,179.801 130.533,180.518C130.007,181.187 129.338,181.521 128.526,181.521C127.714,181.521 126.662,180.47 125.372,178.367C124.081,176.217 122.218,173.206 119.78,169.335C117.391,165.416 114.858,161.975 112.182,159.012C109.506,161.593 107.498,163.385 106.16,164.389C106.304,167.447 106.375,170.004 106.375,172.059C106.375,174.066 106.327,175.691 106.232,176.933C105.945,180.04 104.679,181.593 102.433,181.593C101.047,181.593 100.402,180.757 100.497,179.084L100.497,173.493Z" style="fill:rgb(46,43,44);fill-rule:nonzero;"/>
                    <path id="path275" d="M163.795,135.069C164.464,134.305 165.205,133.922 166.017,133.922C166.83,133.922 167.523,134.329 168.096,135.141C168.909,139.299 169.315,143.958 169.315,149.12L169.315,154.568C169.315,158.678 169.243,161.115 169.1,161.88C168.956,162.596 168.813,163.409 168.67,164.317C168.526,165.225 168.383,165.918 168.24,166.396C168.144,166.874 167.977,167.519 167.738,168.331C167.212,170.099 166.471,171.677 165.516,173.062C164.082,175.739 162.194,177.841 159.852,179.371C157.511,180.9 155.121,181.665 152.684,181.665C150.294,181.665 147.809,180.613 145.229,178.511C142.696,176.408 140.617,173.779 138.992,170.625C136.507,165.751 135.264,160.135 135.264,153.779C135.264,151.533 135.599,146.204 136.268,137.793C136.603,137.029 137.104,136.36 137.773,135.786C138.49,135.165 139.207,134.854 139.924,134.854C140.975,134.854 141.621,135.571 141.859,137.005C141.19,145.273 140.856,150.506 140.856,152.704C140.856,157.961 141.883,162.62 143.938,166.682C145.229,169.359 146.806,171.605 148.67,173.421C150.581,175.189 152.445,176.073 154.261,176.073C157.272,176.073 159.852,173.732 162.003,169.048C162.911,167.423 163.413,164.819 163.508,161.234C163.508,160.279 163.556,159.61 163.652,159.227L163.795,149.765C163.795,145.368 163.461,141.354 162.792,137.722C162.792,136.718 163.126,135.834 163.795,135.069L163.795,135.069Z" style="fill:rgb(46,43,44);fill-rule:nonzero;"/>
                    <path id="path277" d="M190.749,134.424C191.943,134.424 192.947,134.95 193.759,136.001C194.572,137.053 195.623,139.227 196.914,142.525C199.924,150.314 202.863,162.525 205.731,179.156C205.779,179.347 205.803,179.634 205.803,180.016C205.803,180.35 205.564,180.733 205.086,181.163C204.656,181.545 204.01,181.736 203.15,181.736C202.338,181.736 201.645,181.545 201.071,181.163C200.498,180.733 200.116,180.064 199.924,179.156C199.733,178.2 199.375,176.36 198.849,173.636C197.702,167.567 196.938,164.412 196.555,164.174C195.982,163.839 194.07,163.481 190.82,163.098C187.618,162.716 185.492,162.525 184.44,162.525C183.389,162.525 182.768,162.62 182.577,162.812C181.716,163.576 180.546,169.383 179.064,180.231C178.873,181.139 177.965,181.593 176.34,181.593C174.715,181.593 173.903,180.9 173.903,179.514C173.903,176.073 175.169,169.502 177.702,159.801C180.235,150.099 182.338,143.672 184.01,140.517C186.113,136.455 188.359,134.424 190.749,134.424L190.749,134.424ZM190.462,142.381C189.745,142.381 188.503,144.508 186.734,148.761C184.966,152.967 184.082,155.571 184.082,156.575C184.082,156.814 184.13,156.981 184.225,157.077C184.608,157.459 186.113,157.794 188.741,158.08C191.37,158.367 193.114,158.51 193.975,158.51C194.835,158.51 195.313,158.463 195.408,158.367C195.504,158.224 195.552,157.841 195.552,157.22C195.552,156.551 194.906,153.923 193.616,149.335C192.326,144.699 191.274,142.381 190.462,142.381L190.462,142.381Z" style="fill:rgb(46,43,44);fill-rule:nonzero;"/>
                    <path id="path279" d="M215.695,178.582C215.695,179.442 215.313,180.231 214.548,180.948C213.784,181.617 212.947,181.951 212.039,181.951C211.179,181.951 210.582,181.378 210.247,180.231C210.104,173.923 210.032,167.638 210.032,161.378L209.817,143.313C209.817,139.681 211.418,137.196 214.62,135.858C217.201,134.663 220.259,134.066 223.796,134.066C225.612,134.066 227.547,134.52 229.602,135.428C231.705,136.288 233.569,137.578 235.194,139.299C236.866,140.971 237.703,142.811 237.703,144.819C237.703,146.778 236.795,148.905 234.978,151.199C233.162,153.445 230.916,155.452 228.24,157.22C225.564,158.941 222.959,160.231 220.426,161.091C224.871,164.197 228.742,167.543 232.039,171.127C235.337,174.663 236.986,177.411 236.986,179.371C236.986,179.992 236.675,180.589 236.054,181.163C235.433,181.689 234.668,181.951 233.76,181.951C232.9,181.951 232.159,181.569 231.538,180.804C230.486,178.272 228.479,175.619 225.516,172.847C222.601,170.028 219.184,167.352 215.265,164.819L215.695,178.582ZM215.408,157.077C218.61,156.933 222.195,155.595 226.161,153.062C230.176,150.529 232.183,148.259 232.183,146.252C232.183,144.197 231.179,142.62 229.172,141.521C227.165,140.422 224.775,139.872 222.003,139.872C219.279,139.872 217.105,140.207 215.48,140.876C215.432,143.313 215.408,148.713 215.408,157.077L215.408,157.077Z" style="fill:rgb(46,43,44);fill-rule:nonzero;"/>
                    <path id="path281" d="M258.276,134.424C259.471,134.424 260.475,134.95 261.287,136.001C262.099,137.053 263.151,139.227 264.441,142.525C267.452,150.314 270.391,162.525 273.258,179.156C273.306,179.347 273.33,179.634 273.33,180.016C273.33,180.35 273.091,180.733 272.613,181.163C272.183,181.545 271.538,181.736 270.678,181.736C269.865,181.736 269.172,181.545 268.599,181.163C268.025,180.733 267.643,180.064 267.452,179.156C267.261,178.2 266.902,176.36 266.377,173.636C265.23,167.567 264.465,164.412 264.083,164.174C263.509,163.839 261.598,163.481 258.348,163.098C255.146,162.716 253.019,162.525 251.968,162.525C250.917,162.525 250.295,162.62 250.104,162.812C249.244,163.576 248.073,169.383 246.592,180.231C246.4,181.139 245.492,181.593 243.868,181.593C242.243,181.593 241.43,180.9 241.43,179.514C241.43,176.073 242.697,169.502 245.23,159.801C247.762,150.099 249.865,143.672 251.538,140.517C253.641,136.455 255.887,134.424 258.276,134.424L258.276,134.424ZM257.989,142.381C257.273,142.381 256.03,144.508 254.262,148.761C252.494,152.967 251.609,155.571 251.609,156.575C251.609,156.814 251.657,156.981 251.753,157.077C252.135,157.459 253.641,157.794 256.269,158.08C258.897,158.367 260.642,158.51 261.502,158.51C262.362,158.51 262.84,158.463 262.936,158.367C263.031,158.224 263.079,157.841 263.079,157.22C263.079,156.551 262.434,153.923 261.144,149.335C259.853,144.699 258.802,142.381 257.989,142.381L257.989,142.381Z" style="fill:rgb(46,43,44);fill-rule:nonzero;"/>
                </g>
                <g id="path270" transform="matrix(1.36396,0,0,1.36396,-61.6558,-68.4924)">
                    <path d="M59.949,104.329C59.949,104.329 103.312,104.99 122.183,104.553C122.183,104.553 126.514,104.533 134.019,104.574C117.07,112.481 95.905,109.847 79.97,110.076C72.842,110.175 67.359,110.23 65.469,110.205C73.573,119.599 77.989,127.726 78.06,135.153C78.141,143.611 74.764,150.952 69.563,158.921C69.559,158.932 69.552,158.937 69.552,158.947C64.107,167.048 61.499,174.372 61.162,180.685C60.824,186.998 62.673,192.342 66.449,196.865C71.49,202.904 81.798,208.99 92.785,210.517C103.991,211.939 113.209,210.811 123.12,215.291C119.252,215.729 98.583,215.875 91.515,215.255C78.394,214.105 62.502,210.318 54.026,200.871C48.796,195.042 46.046,189.488 46.79,179.922C47.534,170.355 52.556,163.855 58.446,155.725C64.337,147.595 69.084,141.864 69.123,135.202C69.056,128.24 68.675,120.304 58.334,109.522C56.121,107.015 58.199,104.389 59.951,104.332L59.949,104.329Z" style="fill:rgb(46,43,44);fill-rule:nonzero;"/>
                </g>
                <g transform="matrix(2.19733,0,0,2.19733,-217.073,-258.187)">
                    <g transform="matrix(12,0,0,12,152.021,216.273)">
                        <path d="M0.592,-0.421L0.538,-0.387C0.491,-0.449 0.427,-0.48 0.346,-0.48C0.281,-0.48 0.227,-0.46 0.185,-0.418C0.142,-0.376 0.121,-0.326 0.121,-0.266C0.121,-0.228 0.13,-0.191 0.15,-0.157C0.17,-0.123 0.197,-0.096 0.231,-0.078C0.265,-0.059 0.304,-0.049 0.346,-0.049C0.424,-0.049 0.488,-0.08 0.538,-0.143L0.592,-0.107C0.566,-0.069 0.532,-0.039 0.49,-0.018C0.447,0.003 0.398,0.014 0.343,0.014C0.259,0.014 0.19,-0.013 0.134,-0.066C0.079,-0.12 0.051,-0.185 0.051,-0.261C0.051,-0.313 0.064,-0.36 0.09,-0.405C0.116,-0.449 0.152,-0.483 0.197,-0.508C0.242,-0.533 0.293,-0.545 0.349,-0.545C0.384,-0.545 0.418,-0.54 0.45,-0.529C0.483,-0.518 0.511,-0.504 0.534,-0.487C0.556,-0.47 0.576,-0.448 0.592,-0.421Z" style="fill:rgb(46,43,44);fill-rule:nonzero;"/>
                    </g>
                    <g transform="matrix(12,0,0,12,160.985,216.273)">
                        <path d="M0.523,-0.176L0.581,-0.146C0.562,-0.109 0.54,-0.079 0.516,-0.056C0.491,-0.033 0.463,-0.016 0.432,-0.004C0.401,0.008 0.366,0.014 0.327,0.014C0.24,0.014 0.172,-0.015 0.124,-0.072C0.075,-0.128 0.05,-0.193 0.05,-0.264C0.05,-0.332 0.071,-0.392 0.112,-0.444C0.165,-0.511 0.235,-0.545 0.323,-0.545C0.414,-0.545 0.486,-0.511 0.54,-0.442C0.578,-0.393 0.598,-0.333 0.599,-0.26L0.121,-0.26C0.122,-0.199 0.142,-0.148 0.18,-0.109C0.218,-0.069 0.265,-0.049 0.321,-0.049C0.348,-0.049 0.374,-0.054 0.4,-0.063C0.426,-0.073 0.447,-0.085 0.465,-0.101C0.483,-0.116 0.503,-0.142 0.523,-0.176ZM0.523,-0.319C0.514,-0.356 0.501,-0.385 0.484,-0.407C0.466,-0.429 0.443,-0.446 0.414,-0.459C0.386,-0.473 0.356,-0.479 0.324,-0.479C0.272,-0.479 0.227,-0.463 0.19,-0.429C0.162,-0.405 0.141,-0.368 0.127,-0.319L0.523,-0.319Z" style="fill:rgb(46,43,44);fill-rule:nonzero;"/>
                    </g>
                    <g transform="matrix(12,0,0,12,169.983,216.273)">
                        <path d="M0.05,-0.531L0.12,-0.531L0.12,-0.454C0.141,-0.484 0.163,-0.507 0.186,-0.522C0.209,-0.537 0.233,-0.545 0.258,-0.545C0.277,-0.545 0.297,-0.539 0.319,-0.527L0.283,-0.469C0.269,-0.475 0.257,-0.479 0.247,-0.479C0.224,-0.479 0.202,-0.469 0.181,-0.45C0.16,-0.432 0.144,-0.403 0.133,-0.363C0.124,-0.333 0.12,-0.272 0.12,-0.18L0.12,-0L0.05,-0L0.05,-0.531Z" style="fill:rgb(46,43,44);fill-rule:nonzero;"/>
                    </g>
                    <g transform="matrix(12,0,0,12,174.793,216.273)">
                        <path d="M0.605,-0.531L0.605,-0L0.538,-0L0.538,-0.091C0.509,-0.056 0.477,-0.03 0.442,-0.013C0.406,0.005 0.367,0.014 0.325,0.014C0.25,0.014 0.185,-0.014 0.132,-0.068C0.079,-0.123 0.052,-0.189 0.052,-0.267C0.052,-0.344 0.079,-0.409 0.133,-0.463C0.187,-0.518 0.251,-0.545 0.327,-0.545C0.37,-0.545 0.41,-0.536 0.445,-0.517C0.48,-0.499 0.511,-0.471 0.538,-0.434L0.538,-0.531L0.605,-0.531ZM0.332,-0.479C0.294,-0.479 0.259,-0.47 0.227,-0.451C0.195,-0.432 0.169,-0.406 0.15,-0.372C0.131,-0.338 0.122,-0.303 0.122,-0.265C0.122,-0.227 0.131,-0.192 0.15,-0.158C0.17,-0.123 0.195,-0.097 0.228,-0.078C0.26,-0.059 0.295,-0.049 0.332,-0.049C0.369,-0.049 0.405,-0.059 0.438,-0.078C0.472,-0.096 0.497,-0.122 0.515,-0.154C0.533,-0.186 0.542,-0.223 0.542,-0.263C0.542,-0.324 0.522,-0.376 0.482,-0.417C0.441,-0.458 0.391,-0.479 0.332,-0.479ZM0.374,-0.78L0.479,-0.78L0.335,-0.63L0.268,-0.63L0.374,-0.78Z" style="fill:rgb(46,43,44);fill-rule:nonzero;"/>
                    </g>
                    <g transform="matrix(12,0,0,12,184.19,216.273)">
                        <path d="M0.076,-0.531L0.144,-0.531L0.144,-0.439C0.168,-0.473 0.192,-0.498 0.217,-0.514C0.252,-0.535 0.288,-0.545 0.326,-0.545C0.352,-0.545 0.377,-0.54 0.4,-0.53C0.423,-0.52 0.442,-0.506 0.456,-0.49C0.471,-0.473 0.484,-0.449 0.495,-0.417C0.517,-0.459 0.546,-0.491 0.58,-0.512C0.614,-0.534 0.651,-0.545 0.69,-0.545C0.727,-0.545 0.759,-0.536 0.787,-0.517C0.815,-0.499 0.836,-0.473 0.85,-0.439C0.863,-0.406 0.87,-0.356 0.87,-0.29L0.87,-0L0.8,-0L0.8,-0.29C0.8,-0.347 0.796,-0.386 0.788,-0.407C0.78,-0.429 0.766,-0.446 0.747,-0.459C0.727,-0.472 0.703,-0.479 0.676,-0.479C0.643,-0.479 0.613,-0.469 0.585,-0.449C0.558,-0.43 0.538,-0.404 0.525,-0.371C0.513,-0.339 0.506,-0.284 0.506,-0.208L0.506,-0L0.438,-0L0.438,-0.272C0.438,-0.336 0.434,-0.38 0.426,-0.403C0.418,-0.426 0.404,-0.444 0.384,-0.458C0.364,-0.472 0.341,-0.479 0.313,-0.479C0.282,-0.479 0.252,-0.469 0.225,-0.45C0.197,-0.431 0.177,-0.405 0.164,-0.373C0.151,-0.341 0.144,-0.292 0.144,-0.225L0.144,-0L0.076,-0L0.076,-0.531Z" style="fill:rgb(46,43,44);fill-rule:nonzero;"/>
                    </g>
                    <g transform="matrix(12,0,0,12,196.646,216.273)">
                        <path d="M0.1,-0.75C0.115,-0.75 0.129,-0.744 0.14,-0.733C0.151,-0.722 0.156,-0.709 0.156,-0.693C0.156,-0.678 0.151,-0.665 0.14,-0.654C0.129,-0.643 0.115,-0.637 0.1,-0.637C0.085,-0.637 0.071,-0.643 0.06,-0.654C0.049,-0.665 0.044,-0.678 0.044,-0.693C0.044,-0.709 0.049,-0.722 0.06,-0.733C0.071,-0.744 0.085,-0.75 0.1,-0.75ZM0.066,-0.531L0.134,-0.531L0.134,-0L0.066,-0L0.066,-0.531Z" style="fill:rgb(46,43,44);fill-rule:nonzero;"/>
                    </g>
                    <g transform="matrix(12,0,0,12,200.248,216.273)">
                        <path d="M0.592,-0.421L0.538,-0.387C0.491,-0.449 0.427,-0.48 0.346,-0.48C0.281,-0.48 0.227,-0.46 0.185,-0.418C0.142,-0.376 0.121,-0.326 0.121,-0.266C0.121,-0.228 0.13,-0.191 0.15,-0.157C0.17,-0.123 0.197,-0.096 0.231,-0.078C0.265,-0.059 0.304,-0.049 0.346,-0.049C0.424,-0.049 0.488,-0.08 0.538,-0.143L0.592,-0.107C0.566,-0.069 0.532,-0.039 0.49,-0.018C0.447,0.003 0.398,0.014 0.343,0.014C0.259,0.014 0.19,-0.013 0.134,-0.066C0.079,-0.12 0.051,-0.185 0.051,-0.261C0.051,-0.313 0.064,-0.36 0.09,-0.405C0.116,-0.449 0.152,-0.483 0.197,-0.508C0.242,-0.533 0.293,-0.545 0.349,-0.545C0.384,-0.545 0.418,-0.54 0.45,-0.529C0.483,-0.518 0.511,-0.504 0.534,-0.487C0.556,-0.47 0.576,-0.448 0.592,-0.421Z" style="fill:rgb(46,43,44);fill-rule:nonzero;"/>
                    </g>
                    <g transform="matrix(12,0,0,12,209.212,216.273)">
                        <path d="M0.605,-0.531L0.605,-0L0.538,-0L0.538,-0.091C0.509,-0.056 0.477,-0.03 0.442,-0.013C0.406,0.005 0.367,0.014 0.325,0.014C0.25,0.014 0.185,-0.014 0.132,-0.068C0.079,-0.123 0.052,-0.189 0.052,-0.267C0.052,-0.344 0.079,-0.409 0.133,-0.463C0.187,-0.518 0.251,-0.545 0.327,-0.545C0.37,-0.545 0.41,-0.536 0.445,-0.517C0.48,-0.499 0.511,-0.471 0.538,-0.434L0.538,-0.531L0.605,-0.531ZM0.332,-0.479C0.294,-0.479 0.259,-0.47 0.227,-0.451C0.195,-0.432 0.169,-0.406 0.15,-0.372C0.131,-0.338 0.122,-0.303 0.122,-0.265C0.122,-0.227 0.131,-0.192 0.15,-0.158C0.17,-0.123 0.195,-0.097 0.228,-0.078C0.26,-0.059 0.295,-0.049 0.332,-0.049C0.369,-0.049 0.405,-0.059 0.438,-0.078C0.472,-0.096 0.497,-0.122 0.515,-0.154C0.533,-0.186 0.542,-0.223 0.542,-0.263C0.542,-0.324 0.522,-0.376 0.482,-0.417C0.441,-0.458 0.391,-0.479 0.332,-0.479Z" style="fill:rgb(46,43,44);fill-rule:nonzero;"/>
                    </g>
                </g>
            </g>
        </g>
    </g>
</svg>
