<?xml version="1.0" encoding="UTF-8" standalone="no"?>
<!-- Created with Inkscape (http://www.inkscape.org/) -->

<svg
   width="59.97052mm"
   height="29.459122mm"
   viewBox="0 0 59.97052 29.459122"
   version="1.1"
   id="svg234"
   sodipodi:docname="logo_kuara.svg"
   inkscape:version="1.2.1 (9c6d41e410, 2022-07-14)"
   xmlns:inkscape="http://www.inkscape.org/namespaces/inkscape"
   xmlns:sodipodi="http://sodipodi.sourceforge.net/DTD/sodipodi-0.dtd"
   xmlns="http://www.w3.org/2000/svg"
   xmlns:svg="http://www.w3.org/2000/svg">
  <sodipodi:namedview
     id="namedview496"
     pagecolor="#505050"
     bordercolor="#ffffff"
     borderopacity="1"
     inkscape:showpageshadow="0"
     inkscape:pageopacity="0"
     inkscape:pagecheckerboard="1"
     inkscape:deskcolor="#505050"
     inkscape:document-units="mm"
     showgrid="false"
     inkscape:zoom="2.1196038"
     inkscape:cx="70.532049"
     inkscape:cy="55.670781"
     inkscape:window-width="1920"
     inkscape:window-height="1027"
     inkscape:window-x="-8"
     inkscape:window-y="-8"
     inkscape:window-maximized="1"
     inkscape:current-layer="layer1" />
  <defs
     id="defs231" />
  <g
     id="layer1"
     transform="translate(-91.228777,-102.4816)">
    <g
       aria-label="KUARA"
       id="text264"
       style="font-size:18.9667px;text-align:end;letter-spacing:0px;word-spacing:0px;text-anchor:end;fill:#ffffff;stroke-width:0.474165">
      <path
         d="m 105.47056,120.78108 q 0,-1.46044 -0.18967,-4.93134 -0.1707,-3.48988 -0.30347,-4.41924 0,-0.41727 0.2845,-0.72074 0.2845,-0.32243 0.64487,-0.32243 0.4552,0 0.60693,0.569 0.30347,1.89667 0.37934,5.46241 1.707,-1.57424 2.63637,-2.69327 0.94833,-1.11904 1.9915,-2.86397 0.30347,-0.51211 0.89144,-0.51211 0.30347,0 0.49313,0.1707 0.20864,0.15174 0.20864,0.37934 0,0.60693 -1.08111,2.1053 -1.06213,1.47941 -2.25703,2.88294 1.5932,1.5932 2.7312,3.67954 0.15174,0.26553 0.3983,0.66384 0.24657,0.3983 0.37934,0.6259 0.36036,0.6259 0.36036,1.06213 0,0.43624 -0.2276,0.72074 -0.20863,0.26553 -0.53106,0.26553 -0.32244,0 -0.83454,-0.83454 -0.5121,-0.8535 -1.4794,-2.3898 -0.94834,-1.55527 -2.01047,-2.7312 -1.06214,1.0242 -1.5932,1.4225 0.0569,1.21387 0.0569,2.02944 0,0.7966 -0.0379,1.28973 -0.1138,1.23284 -1.00523,1.23284 -0.55004,0 -0.5121,-0.66384 z"
         style="-inkscape-font-specification:'Patrick Hand SC'"
         id="path503" />
      <path
         d="m 122.21817,110.61493 q 0.26553,-0.30347 0.58796,-0.30347 0.32244,0 0.55004,0.32244 0.32243,1.6501 0.32243,3.6985 v 1.44147 q 0,1.63114 -0.0569,1.9346 -0.0569,0.2845 -0.1138,0.64487 -0.0569,0.36037 -0.1138,0.55004 -0.0379,0.18966 -0.13277,0.5121 -0.20863,0.70176 -0.58796,1.2518 -0.569,1.06213 -1.49837,1.66907 -0.92937,0.60693 -1.89667,0.60693 -0.94834,0 -1.97254,-0.83453 -1.00523,-0.83454 -1.6501,-2.08634 -0.98627,-1.9346 -0.98627,-4.45717 0,-0.89144 0.26553,-4.22958 0.13277,-0.30346 0.3983,-0.53106 0.2845,-0.24657 0.569,-0.24657 0.41727,0 0.51211,0.569 -0.26554,3.28124 -0.26554,4.15371 0,2.08633 0.81557,3.6985 0.5121,1.06214 1.2518,1.78287 0.75867,0.70177 1.4794,0.70177 1.19491,0 2.04841,-1.85874 0.36037,-0.64486 0.3983,-2.06737 0,-0.37933 0.0379,-0.53106 l 0.0379,-2.50361 q 0,-1.74493 -0.26554,-3.1864 0,-0.3983 0.26554,-0.70177 z"
         style="-inkscape-font-specification:'Patrick Hand SC'"
         id="path505" />
      <path
         d="m 129.34963,110.44423 q 0.47417,0 0.7966,0.41727 0.32244,0.41726 0.83454,1.72597 1.1949,3.09157 2.3329,9.69198 0.019,0.0759 0.019,0.2276 0,0.13277 -0.18967,0.30347 -0.1707,0.15173 -0.5121,0.15173 -0.32243,0 -0.55003,-0.15173 -0.2276,-0.1707 -0.30347,-0.53107 -0.0759,-0.37934 -0.2845,-1.46044 -0.4552,-2.40877 -0.60694,-2.5036 -0.2276,-0.13277 -1.51733,-0.2845 -1.27077,-0.15174 -1.68804,-0.15174 -0.41727,0 -0.49313,0.0759 -0.3414,0.30347 -0.92937,4.60891 -0.0759,0.36037 -0.72074,0.36037 -0.64486,0 -0.64486,-0.55004 0,-1.3656 1.00523,-5.21584 1.00524,-3.85024 1.66907,-5.10204 0.83454,-1.61217 1.78287,-1.61217 z m -0.0759,2.1053 q -0.2845,0 -0.98626,1.68804 -0.70177,1.66907 -0.70177,2.06737 0,0.0948 0.0379,0.13277 0.15173,0.15173 1.1949,0.26553 1.04317,0.1138 1.38457,0.1138 0.3414,0 0.37934,-0.0379 0.0379,-0.0569 0.0379,-0.30347 0,-0.26554 -0.5121,-2.08634 -0.5121,-1.83977 -0.83454,-1.83977 z"
         style="-inkscape-font-specification:'Patrick Hand SC'"
         id="path507" />
      <path
         d="m 135.95006,122.12771 q 0,0.34141 -0.30347,0.62591 -0.30347,0.26553 -0.66383,0.26553 -0.34141,0 -0.47417,-0.4552 -0.0569,-2.50361 -0.0569,-4.98824 l -0.0569,-4.77961 q 0,-1.44147 1.27077,-1.97254 1.0242,-0.47417 2.42773,-0.47417 0.72074,0 1.53631,0.36037 0.83453,0.3414 1.4794,1.0242 0.66383,0.66384 0.66383,1.46044 0,0.77763 -0.72073,1.68804 -0.72074,0.89143 -1.78287,1.5932 -1.06214,0.6828 -2.06737,1.0242 1.7639,1.23284 3.0726,2.65534 1.30871,1.40353 1.30871,2.18117 0,0.24657 -0.24657,0.47417 -0.24657,0.20863 -0.60693,0.20863 -0.34141,0 -0.58797,-0.30347 -0.41727,-1.00523 -1.59321,-2.1053 -1.15696,-1.11904 -2.71223,-2.12427 z m -0.0759,-5.69 q 1.27077,-0.0569 2.84501,-1.06214 1.5932,-1.00524 1.5932,-1.80184 0,-0.81556 -0.7966,-1.2518 -0.7966,-0.43623 -1.89667,-0.43623 -1.08111,0 -1.72597,0.26553 -0.019,0.9673 -0.019,4.28648 z"
         style="-inkscape-font-specification:'Patrick Hand SC'"
         id="path509" />
      <path
         d="m 147.21629,110.44423 q 0.47417,0 0.7966,0.41727 0.32243,0.41726 0.83453,1.72597 1.19491,3.09157 2.33291,9.69198 0.019,0.0759 0.019,0.2276 0,0.13277 -0.18967,0.30347 -0.1707,0.15173 -0.5121,0.15173 -0.32244,0 -0.55004,-0.15173 -0.2276,-0.1707 -0.30346,-0.53107 -0.0759,-0.37934 -0.2845,-1.46044 -0.45521,-2.40877 -0.60694,-2.5036 -0.2276,-0.13277 -1.51734,-0.2845 -1.27076,-0.15174 -1.68803,-0.15174 -0.41727,0 -0.49314,0.0759 -0.3414,0.30347 -0.92936,4.60891 -0.0759,0.36037 -0.72074,0.36037 -0.64487,0 -0.64487,-0.55004 0,-1.3656 1.00524,-5.21584 1.00523,-3.85024 1.66907,-5.10204 0.83453,-1.61217 1.78287,-1.61217 z m -0.0759,2.1053 q -0.2845,0 -0.98627,1.68804 -0.70176,1.66907 -0.70176,2.06737 0,0.0948 0.0379,0.13277 0.15173,0.15173 1.1949,0.26553 1.04317,0.1138 1.38457,0.1138 0.3414,0 0.37933,-0.0379 0.0379,-0.0569 0.0379,-0.30347 0,-0.26554 -0.5121,-2.08634 -0.5121,-1.83977 -0.83454,-1.83977 z"
         style="-inkscape-font-specification:'Patrick Hand SC'"
         id="path511" />
    </g>
    <g
       aria-label="cerámica"
       id="text268"
       style="font-size:7.24686px;text-align:end;letter-spacing:0.711548px;word-spacing:0px;text-anchor:end;fill:#bfbfbf;stroke-width:0.283403">
      <path
         d="m 116.11683,130.25484 q -0.62323,0 -1.01456,-0.39133 -0.39133,-0.39133 -0.39133,-1.07978 0.007,-0.45655 0.18842,-0.8044 0.18117,-0.34785 0.50003,-0.54352 0.31886,-0.19566 0.73918,-0.19566 0.53627,0 0.88412,0.29712 0.3551,0.28987 0.43481,0.73193 h -0.31161 q -0.0725,-0.3406 -0.34785,-0.52902 -0.26814,-0.19566 -0.65222,-0.19566 -0.50003,0 -0.8044,0.3406 -0.30437,0.3406 -0.30437,0.88412 0,0.54351 0.28987,0.86237 0.29713,0.31886 0.79716,0.31886 0.39133,0 0.66671,-0.19566 0.28263,-0.19567 0.3551,-0.53627 h 0.31161 q -0.0797,0.44931 -0.44206,0.74643 -0.36234,0.28987 -0.89861,0.28987 z"
         style="-inkscape-font-specification:'Darker Grotesque'"
         id="path524" />
      <path
         d="m 120.04599,130.25484 q -0.47105,0 -0.78266,-0.22465 -0.30437,-0.22465 -0.45655,-0.5725 -0.15219,-0.3551 -0.14494,-0.73194 0,-0.39133 0.15943,-0.73193 0.15943,-0.3406 0.4638,-0.54351 0.31161,-0.21016 0.75367,-0.21016 0.55076,0 0.90586,0.36234 0.36234,0.3551 0.40582,0.95659 0.007,0.0362 0.007,0.087 0,0.0507 0,0.0942 h -2.37697 q 0,0.55801 0.27538,0.89136 0.27538,0.33336 0.78991,0.33336 0.36959,0 0.63772,-0.19567 0.27538,-0.19566 0.3406,-0.52902 h 0.32611 q -0.087,0.44931 -0.44206,0.73193 -0.34784,0.28263 -0.86237,0.28263 z m -1.04355,-1.732 h 2.01463 q -0.007,-0.18842 -0.10871,-0.42032 -0.0942,-0.2319 -0.31161,-0.40582 -0.21016,-0.17392 -0.55801,-0.17392 -0.47829,0 -0.73193,0.29712 -0.25364,0.29712 -0.30437,0.70294 z"
         style="-inkscape-font-specification:'Darker Grotesque'"
         id="path526" />
      <path
         d="m 122.76491,130.18237 v -2.94222 h 0.28263 l 0.0435,0.75367 q 0.0725,-0.31161 0.3406,-0.53627 0.26814,-0.22465 0.75368,-0.2174 h 0.15943 v 0.36959 h -0.15943 q -0.49279,0 -0.72469,0.15943 -0.2319,0.15218 -0.30437,0.41307 -0.0652,0.26089 -0.0652,0.57975 v 1.42038 z"
         style="-inkscape-font-specification:'Darker Grotesque'"
         id="path528" />
      <path
         d="m 126.48391,130.24759 q -0.40582,0 -0.67396,-0.20291 -0.26813,-0.20291 -0.39857,-0.54351 -0.13045,-0.34785 -0.13045,-0.76817 0,-0.43481 0.13045,-0.77541 0.13769,-0.34785 0.40582,-0.54352 0.26813,-0.20291 0.66671,-0.20291 0.42757,0 0.68121,0.21016 0.25364,0.20291 0.36234,0.47105 h 0.0145 v -0.65222 h 0.33336 v 2.94222 h -0.27538 l -0.058,-0.60873 h -0.0145 q -0.11595,0.26813 -0.36959,0.47104 -0.25364,0.20291 -0.67396,0.20291 z m 0.1232,-0.30436 q 0.4638,0 0.6957,-0.31887 0.2319,-0.31886 0.2319,-0.88411 0,-0.60149 -0.2464,-0.90586 -0.23914,-0.30437 -0.6812,-0.30437 -0.51453,0 -0.75368,0.34785 -0.23914,0.3406 -0.23914,0.85513 0,0.53627 0.24639,0.87687 0.24639,0.33336 0.74643,0.33336 z m 0.13044,-3.0002 h -0.17392 v -0.058 l 0.39133,-0.75367 h 0.31886 v 0.087 z"
         style="-inkscape-font-specification:'Darker Grotesque'"
         id="path530" />
      <path
         d="m 129.14487,130.18237 v -2.94222 h 0.27538 l 0.029,0.78266 h 0.0145 q 0.0217,-0.0652 0.0725,-0.18842 0.058,-0.13044 0.16667,-0.26089 0.10871,-0.13769 0.28988,-0.2319 0.18117,-0.10145 0.4493,-0.10145 0.28988,0 0.4638,0.11595 0.18117,0.1087 0.28263,0.28987 0.10146,0.18117 0.14494,0.37684 h 0.0145 q 0.0217,-0.0652 0.0797,-0.18842 0.0652,-0.13044 0.18117,-0.26089 0.12319,-0.13769 0.31161,-0.2319 0.18842,-0.10145 0.45656,-0.10145 0.28987,0 0.47104,0.11595 0.18117,0.11595 0.28263,0.29712 0.10145,0.17392 0.14494,0.37684 0.0435,0.20291 0.0507,0.39133 0.007,0.18117 0.007,0.30436 v 1.45662 h -0.29712 v -1.46386 q 0,-0.1232 -0.0145,-0.31162 -0.007,-0.19566 -0.0797,-0.39133 -0.0652,-0.20291 -0.21741,-0.33335 -0.15218,-0.13769 -0.43481,-0.13769 -0.31161,0 -0.50728,0.17392 -0.19566,0.17393 -0.29712,0.45655 -0.0942,0.28263 -0.0942,0.61599 v 1.39139 h -0.29712 v -1.46386 q 0,-0.1232 -0.0145,-0.31162 -0.007,-0.19566 -0.0797,-0.39133 -0.0652,-0.20291 -0.2174,-0.33335 -0.15219,-0.13769 -0.43482,-0.13769 -0.31161,0 -0.50728,0.17392 -0.19566,0.17393 -0.29712,0.45655 -0.0942,0.28263 -0.0942,0.61599 v 1.39139 z"
         style="-inkscape-font-specification:'Darker Grotesque'"
         id="path532" />
      <path
         d="m 134.9582,126.92853 q -0.1232,0.007 -0.16668,-0.0652 -0.0435,-0.0725 -0.0435,-0.17392 0,-0.0942 0.0435,-0.15943 0.0435,-0.0652 0.16668,-0.0652 0.11595,0 0.15943,0.0652 0.0435,0.0652 0.0435,0.15943 0,0.1087 -0.0435,0.17392 -0.0435,0.0652 -0.15943,0.0652 z m -0.17393,3.25384 v -2.94222 h 0.32611 v 2.94222 z"
         style="-inkscape-font-specification:'Darker Grotesque'"
         id="path534" />
      <path
         d="m 137.83655,130.25484 q -0.62323,0 -1.01456,-0.39133 -0.39133,-0.39133 -0.39133,-1.07978 0.007,-0.45655 0.18842,-0.8044 0.18117,-0.34785 0.50003,-0.54352 0.31886,-0.19566 0.73918,-0.19566 0.53627,0 0.88412,0.29712 0.35509,0.28987 0.43481,0.73193 h -0.31161 q -0.0725,-0.3406 -0.34785,-0.52902 -0.26814,-0.19566 -0.65222,-0.19566 -0.50003,0 -0.8044,0.3406 -0.30437,0.3406 -0.30437,0.88412 0,0.54351 0.28987,0.86237 0.29712,0.31886 0.79716,0.31886 0.39133,0 0.66671,-0.19566 0.28263,-0.19567 0.3551,-0.53627 h 0.31161 q -0.0797,0.44931 -0.44206,0.74643 -0.36234,0.28987 -0.89861,0.28987 z"
         style="-inkscape-font-specification:'Darker Grotesque'"
         id="path536" />
      <path
         d="m 141.49757,130.24759 q -0.40582,0 -0.67395,-0.20291 -0.26814,-0.20291 -0.39858,-0.54351 -0.13044,-0.34785 -0.13044,-0.76817 0,-0.43481 0.13044,-0.77541 0.13769,-0.34785 0.40582,-0.54352 0.26814,-0.20291 0.66671,-0.20291 0.42757,0 0.68121,0.21016 0.25364,0.20291 0.36234,0.47105 h 0.0145 v -0.65222 h 0.33335 v 2.94222 h -0.27538 l -0.058,-0.60873 h -0.0145 q -0.11595,0.26813 -0.36959,0.47104 -0.25364,0.20291 -0.67396,0.20291 z m 0.1232,-0.30436 q 0.4638,0 0.6957,-0.31887 0.2319,-0.31886 0.2319,-0.88411 0,-0.60149 -0.24639,-0.90586 -0.23915,-0.30437 -0.68121,-0.30437 -0.51453,0 -0.75367,0.34785 -0.23915,0.3406 -0.23915,0.85513 0,0.53627 0.24639,0.87687 0.2464,0.33336 0.74643,0.33336 z"
         style="-inkscape-font-specification:'Darker Grotesque'"
         id="path538" />
    </g>
    <path
       style="color:#000000;fill:#bfbfbf;stroke-width:1.59869;stroke-linejoin:round;paint-order:markers fill stroke"
       d="m 94.742155,102.4816 c 0,0 11.473155,0.17477 16.466245,0.0593 0,0 1.14567,-0.005 3.13156,0.005 -4.48446,2.09215 -10.08439,1.39526 -14.30042,1.45585 -1.885976,0.0262 -3.336714,0.0407 -3.836913,0.0342 2.144245,2.48534 3.312698,4.63559 3.331376,6.60086 0.02138,2.23774 -0.872065,4.18016 -2.248214,6.28862 -10e-4,0.003 -0.0027,0.004 -0.0027,0.007 -1.440666,2.14346 -2.130811,4.08129 -2.220056,5.75157 -0.08929,1.67026 0.400022,3.08418 1.398847,4.28088 1.333806,1.59801 4.06131,3.20812 6.96822,3.61228 2.9649,0.37627 5.4038,0.0776 8.02618,1.26293 -1.02345,0.11605 -6.49229,0.15452 -8.36212,-0.009 -3.47165,-0.30422 -7.676366,-1.30619 -9.91908,-3.80586 -1.383763,-1.54231 -2.111436,-3.01162 -1.914535,-5.54279 0.196903,-2.53116 1.525579,-4.251 3.084091,-6.40206 1.558512,-2.15105 2.814422,-3.66729 2.824735,-5.42998 -0.01748,-1.84213 -0.11833,-3.94167 -2.854452,-6.79446 -0.585665,-0.66348 -0.03563,-1.35828 0.427709,-1.37329 z"
       id="path270" />
  </g>
</svg>
