<?xml version="1.0" encoding="UTF-8" standalone="no"?>
<!-- Uploaded to: SVG Repo, www.svgrepo.com, Generator: SVG Repo Mixer Tools -->

<svg
   width="571.33997"
   height="797.90594"
   viewBox="0 0 137.12159 191.49743"
   fill="none"
   version="1.1"
   id="svg1"
   sodipodi:docname="map-icon-mono.svg"
   xmlns:inkscape="http://www.inkscape.org/namespaces/inkscape"
   xmlns:sodipodi="http://sodipodi.sourceforge.net/DTD/sodipodi-0.dtd"
   xmlns="http://www.w3.org/2000/svg"
   xmlns:svg="http://www.w3.org/2000/svg">
  <defs
     id="defs1" />
  <sodipodi:namedview
     id="namedview1"
     pagecolor="#ffffff"
     bordercolor="#000000"
     borderopacity="0.25"
     inkscape:showpageshadow="2"
     inkscape:pageopacity="0.0"
     inkscape:pagecheckerboard="0"
     inkscape:deskcolor="#d1d1d1" />
  <path
     stroke="#000000"
     stroke-width="14.1849"
     d="M 68.560797,7.0924508 A 61.326489,61.326489 0 0 0 25.095588,25.181874 61.903346,61.903346 0 0 0 7.0924567,68.851584 c 0,19.617856 5.0782313,33.889146 24.6003403,57.801516 a 193.54607,193.54607 0 0 1 23.704319,33.54753 c 7.078315,14.41787 6.243765,24.20434 13.163681,24.20434 6.91991,0 6.08537,-9.78647 13.16368,-24.20434 A 193.53425,193.53425 0 0 1 105.4288,126.6531 c 19.52212,-23.91237 24.60034,-38.184842 24.60034,-57.801516 A 61.905711,61.905711 0 0 0 112.026,25.181874 61.326489,61.326489 0 0 0 68.560797,7.0924508 Z"
     id="path1" />
  <circle
     cx="68.560799"
     cy="68.560776"
     r="23.641668"
     stroke="#000000"
     stroke-width="14.1849"
     id="circle1" />
</svg>
