<?xml version="1.0" encoding="UTF-8" standalone="no"?>
<!DOCTYPE svg PUBLIC "-//W3C//DTD SVG 1.1//EN" "http://www.w3.org/Graphics/SVG/1.1/DTD/svg11.dtd">
<svg width="100%" height="100%" viewBox="0 0 800 800" version="1.1" xmlns="http://www.w3.org/2000/svg" xmlns:xlink="http://www.w3.org/1999/xlink" xml:space="preserve" xmlns:serif="http://www.serif.com/" style="fill-rule:evenodd;clip-rule:evenodd;stroke-linejoin:round;stroke-miterlimit:2;">
    <g transform="matrix(1.06663,0,0,1.06663,-28.9479,-24.7507)">
        <path d="M571,474.5C561.5,470 516,447.5 507.5,444C499,440.5 493,439.5 486.5,449C480,458.5 462.5,479 457,485.5C451.5,492 446.5,492.5 437,485.5C409.714,474.55 384.513,458.99 362.5,439.5C342.573,420.738 325.702,398.975 312.5,375C307,366 312.5,361 316.5,356C320.5,351 325.5,345.5 330.5,340C334.156,335.243 337.182,330.033 339.5,324.5C342.011,319.29 342.011,313.21 339.5,308C339.5,303.5 318.5,258 310.5,239.5C302.5,221 295.5,223.5 290,223.5L270,223.5C260.476,223.871 251.479,228.01 245,235C223.86,255.173 212.072,283.282 212.5,312.5C215.057,347.995 228.113,381.94 250,410C290.166,469.667 345.128,517.91 409.5,550C431.5,559.5 448.5,565 462,569.5C480.956,575.23 500.996,576.428 520.5,573C546.674,567.69 569.503,551.746 583.5,529C589.265,515.098 591.166,499.893 589,485C586.5,481.5 580.5,479 571,474.5Z" style="fill-rule:nonzero;"/>
    </g>
    <g transform="matrix(1.06663,0,0,1.06663,-29.7834,-25.6522)">
        <path d="M664.5,134C594.671,63.51 499.218,24.174 400,25C196.665,26.064 29.947,193.657 29.947,396.995C29.947,462.096 47.036,526.071 79.5,582.5L29.5,775L226.5,725C280.958,754.633 342.001,770.109 404,770L400,770C400.808,770.005 401.616,770.008 402.424,770.008C606.497,770.008 774.424,602.081 774.424,398.008C774.424,298.913 734.828,203.813 664.5,134ZM400,706C344.532,706.044 290.083,691.006 242.5,662.5L231.5,656L114.5,686.5L145.5,572.5L138.5,561C108.114,512.066 92.008,455.596 92.008,397.996C92.008,228.483 231.496,88.996 401.008,88.996C482.439,88.996 560.657,121.185 618.5,178.5C676.707,236.238 709.335,315.014 709,397C708.727,566.409 569.409,705.727 400,706Z" style="fill-rule:nonzero;"/>
    </g>
</svg>
